<svg xmlns="http://www.w3.org/2000/svg" viewBox="-137.15 255.1 1298.3 701.8" role="img" aria-label="salata"><g fill="#5c3a21" transform="translate(111.5,459.8) scale(2.9620)"><path fill-rule="evenodd" d="M69.9,141.7 C67.5,141.4 66.4,140.5 65.1,138.0 C64.2,136.2 63.7,136.0 58.7,134.5 C48.1,131.4 36.5,127.0 31.4,124.0 C24.1,119.8 21.3,118.8 15.8,118.5 C8.8,118.1 8.2,118.0 6.9,116.5 C5.0,114.3 5.8,111.2 8.5,110.1 C10.0,109.4 260.9,109.6 262.4,110.2 C265.1,111.4 265.7,114.8 263.5,116.8 C262.2,118.1 261.3,118.2 255.8,118.3 C250.0,118.5 250.9,118.2 240.6,123.4 C229.8,128.8 224.2,131.1 214.0,134.0 C207.5,135.9 207.0,136.1 206.1,137.8 C205.1,139.8 204.3,140.7 203.2,141.3 L202.1,141.8 L136.8,141.9 C100.8,141.9 70.7,141.8 69.9,141.7 Z M98.0,104.7 C97.9,104.6 87.0,104.5 73.7,104.4 C52.3,104.3 49.5,104.3 48.1,103.9 C42.4,102.3 39.2,97.6 40.0,92.0 C40.6,87.2 39.0,85.1 32.5,82.6 C24.1,79.4 21.7,72.8 27.0,67.2 C30.2,63.7 30.3,61.7 27.6,56.5 C23.8,48.8 23.9,42.8 27.9,39.3 C31.4,36.2 34.8,36.0 40.9,38.6 C45.4,40.6 46.6,40.5 49.8,37.8 C52.0,36.0 53.3,35.4 55.5,35.4 C59.2,35.4 61.5,37.3 65.2,43.9 C67.9,48.6 69.6,49.4 74.1,48.0 C81.4,45.7 85.6,49.0 88.1,58.8 C90.2,67.1 92.1,68.6 100.6,68.5 L105.9,68.4 L107.2,69.1 C111.7,71.3 114.6,75.5 116.6,82.8 C119.0,91.2 122.4,96.2 129.0,101.0 C132.2,103.3 132.6,104.5 130.4,104.5 C127.8,104.5 119.6,102.6 115.6,101.0 C114.3,100.5 112.5,99.8 111.7,99.6 C107.4,98.3 103.4,93.5 100.4,85.7 C99.4,83.3 99.1,82.9 98.8,83.6 C98.6,84.4 99.3,88.9 100.0,91.3 C101.4,95.8 100.7,95.9 94.5,92.4 C92.5,91.2 90.2,90.0 89.4,89.6 C82.9,86.3 76.9,76.5 75.8,67.5 C75.5,65.0 75.3,64.4 74.9,64.6 C74.7,64.6 74.6,66.1 74.6,69.4 L74.6,74.1 L75.6,76.5 C76.8,79.6 77.0,81.3 75.9,81.5 C75.0,81.6 70.1,78.5 67.9,76.5 C67.1,75.7 65.6,74.5 64.7,73.7 C61.5,70.9 58.7,66.3 56.9,60.6 C56.4,59.0 55.8,57.5 55.5,57.2 L55.0,56.6 L55.0,58.5 C55.0,59.6 55.2,61.4 55.4,62.5 C55.9,64.9 55.8,66.1 55.2,66.2 C54.7,66.3 51.0,63.5 47.8,60.5 C42.4,55.5 41.8,56.5 47.1,62.0 C57.1,72.4 56.9,71.8 50.8,72.1 C46.2,72.2 44.5,72.5 44.5,73.1 C44.5,73.6 45.3,73.7 48.8,73.8 C52.7,74.0 58.8,75.6 62.5,77.5 C64.4,78.4 64.6,78.6 67.7,81.3 C68.9,82.4 71.0,84.0 72.3,84.8 C76.3,87.5 76.1,87.8 69.7,88.7 C60.3,89.9 57.4,91.7 65.6,91.2 C70.9,90.8 75.1,91.2 80.9,92.4 L85.0,93.3 L90.1,95.9 C92.9,97.3 97.2,99.3 99.6,100.2 C106.6,103.0 107.1,103.3 106.2,104.2 C105.8,104.6 98.3,105.0 98.0,104.7 Z M181.0,104.2 C178.9,103.6 175.0,100.4 172.0,96.7 C165.2,88.6 162.4,76.6 164.7,66.0 C166.2,58.9 170.9,51.2 175.6,48.0 C176.3,47.5 177.4,46.7 178.0,46.2 C178.6,45.7 180.2,44.7 181.6,44.0 L184.1,42.7 L186.3,42.9 C192.4,43.3 193.4,45.3 189.6,49.6 C187.2,52.2 187.0,53.2 188.8,54.1 C191.3,55.3 195.9,54.4 201.3,51.7 C206.8,48.9 206.9,48.9 210.5,51.6 C211.3,52.2 213.1,53.5 214.6,54.5 C216.1,55.5 217.7,56.8 218.2,57.4 C221.3,61.3 223.2,56.2 221.1,49.1 C220.2,45.9 220.4,45.5 222.7,45.2 C223.6,45.1 225.0,44.7 225.8,44.4 C230.4,42.4 239.9,50.2 243.6,59.1 C248.6,71.1 246.8,86.7 239.5,95.7 C236.7,99.2 232.1,103.1 229.8,104.0 C228.7,104.5 182.5,104.6 181.0,104.2 Z M141.7,103.3 C139.9,102.1 134.8,97.0 133.6,95.2 C130.9,91.0 130.1,81.0 132.0,75.2 C134.1,68.5 132.6,69.2 129.6,76.2 C128.5,79.0 128.0,81.1 128.0,83.8 C128.0,88.5 126.9,88.1 121.9,81.4 C114.8,72.0 113.4,61.1 117.5,49.0 C117.8,48.3 118.0,47.4 118.0,47.0 L118.0,46.4 L117.4,47.0 C117.0,47.4 116.2,48.8 115.5,50.1 C113.7,53.9 113.1,56.1 112.0,63.6 C111.9,65.0 111.3,65.6 110.6,65.0 C109.3,63.9 103.1,53.2 98.8,44.6 C96.2,39.2 95.0,37.0 93.1,33.4 C92.4,32.1 92.4,33.0 93.2,35.4 C93.6,36.8 94.2,38.8 94.4,39.9 C95.0,42.2 99.2,52.7 101.7,57.9 C104.5,63.8 104.4,64.1 99.1,64.1 L95.5,64.1 L94.7,63.3 C93.6,62.2 93.2,61.3 92.4,58.1 C89.6,46.7 82.6,41.1 74.1,43.3 C71.0,44.2 70.5,43.8 68.1,39.0 C65.3,33.7 66.5,29.9 71.7,27.8 C75.7,26.1 76.0,25.5 76.9,19.1 C77.8,12.3 80.1,9.1 85.2,7.4 C90.7,5.6 95.3,8.1 99.7,15.2 C102.1,19.1 103.9,19.9 108.1,18.9 C113.5,17.5 116.3,19.4 118.6,25.9 C119.8,29.3 120.2,29.7 124.3,31.0 C130.4,33.0 132.1,37.0 130.0,45.0 C128.7,49.7 129.1,52.2 131.2,54.0 C132.1,54.8 132.6,54.9 135.5,55.6 C137.9,56.2 142.0,58.3 143.5,59.6 C147.1,63.0 147.7,70.6 145.0,77.7 C142.1,85.2 141.8,89.1 143.6,97.3 C145.3,104.7 145.0,105.5 141.7,103.3 Z M150.3,103.2 C150.0,102.9 149.4,101.8 149.0,100.8 C144.4,89.6 147.4,77.0 156.3,70.0 C158.7,68.1 159.0,68.5 159.0,73.1 C159.0,78.7 160.6,86.2 162.6,90.7 C164.0,93.7 163.9,94.0 160.7,95.7 C157.2,97.6 155.5,99.0 154.0,101.1 C151.9,104.1 151.4,104.4 150.3,103.2 Z M175.6,75.7 C175.8,75.4 176.1,74.3 176.2,73.4 C176.9,68.9 178.6,64.7 181.0,61.8 C183.5,58.6 183.8,57.5 182.5,56.4 C178.7,53.2 173.2,62.1 173.2,71.5 C173.2,75.3 174.5,77.5 175.6,75.7 Z M152.6,68.3 C151.9,67.8 150.3,62.2 150.3,60.1 C150.2,53.8 152.4,49.2 158.7,42.3 C160.1,40.7 161.2,39.4 161.2,39.3 C160.9,39.0 158.4,40.3 156.4,41.8 C155.3,42.6 154.3,43.2 154.0,43.2 C153.3,43.0 153.5,39.5 154.6,35.2 C155.6,31.0 155.9,29.1 155.5,28.9 C154.9,28.5 153.9,31.0 151.5,38.9 C149.6,45.2 149.4,45.5 148.5,45.5 C147.9,45.4 147.8,45.3 146.4,42.1 C144.3,37.7 142.3,37.8 144.2,42.2 C145.6,45.8 145.9,46.7 146.4,49.7 C147.1,55.1 146.4,56.1 143.3,54.2 C141.8,53.3 141.0,53.0 136.9,51.9 C133.6,51.0 133.1,49.7 134.1,45.3 C135.9,37.5 135.3,34.4 131.3,30.2 L129.4,28.2 L129.4,26.5 C129.5,18.0 134.5,13.3 141.2,15.5 C144.7,16.6 145.0,16.5 149.4,12.3 C154.2,7.7 156.8,6.3 160.4,6.6 C164.8,6.8 168.9,10.7 170.3,15.8 C171.1,18.9 172.6,20.3 175.6,20.6 C178.6,20.9 181.5,23.1 182.3,25.8 C183.0,28.0 182.9,28.4 181.2,30.1 C179.2,32.2 179.0,32.8 179.7,35.7 C180.5,38.9 179.7,40.1 176.1,41.5 C171.0,43.3 164.4,51.4 161.4,59.6 C159.9,63.6 159.5,64.1 157.6,65.2 C156.8,65.7 155.6,66.6 154.8,67.3 C153.5,68.5 153.1,68.7 152.6,68.3 Z M216.3,53.0 C215.4,52.2 213.7,51.0 212.6,50.4 C211.5,49.7 209.9,48.8 209.1,48.2 C206.6,46.6 206.2,46.7 203.3,48.6 C200.3,50.6 192.6,52.3 192.2,51.1 C192.0,50.7 194.1,47.0 195.5,45.2 C197.1,43.4 196.8,43.0 193.5,42.0 C189.6,40.8 185.2,38.2 184.9,36.7 C184.5,35.0 185.2,34.9 188.4,36.1 C190.1,36.8 190.3,36.8 195.2,36.9 C199.9,36.9 200.5,37.0 201.9,37.5 C204.5,38.4 204.5,38.4 205.5,33.3 C207.2,24.9 209.7,21.7 213.2,23.2 C215.2,24.2 215.2,25.2 213.0,28.1 C210.0,32.1 208.4,36.2 209.4,37.6 C209.9,38.4 210.2,38.4 213.8,37.6 C215.9,37.1 217.5,37.2 221.2,38.0 C223.0,38.4 224.3,38.5 226.2,38.5 C229.2,38.4 229.6,38.7 228.5,39.9 C227.0,41.5 225.8,42.0 221.9,42.5 C217.3,43.1 216.5,43.4 216.4,44.1 C216.2,44.8 216.2,44.8 217.8,47.0 C221.7,52.4 220.6,56.8 216.3,53.0 Z"/></g></svg>
